<svg xmlns="http://www.w3.org/2000/svg" viewBox="0 0 80 80">
  <defs><linearGradient id="bg" x1="0" y1="0" x2="1" y2="1"><stop stop-color="#e0e7ff"/><stop offset="1" stop-color="#c4b5fd"/></linearGradient></defs>
  <rect width="80" height="80" rx="40" fill="url(#bg)"/>
  <path d="M19 76c2-15 10-23 21-23s19 8 21 23" fill="#4f46e5"/>
  <ellipse cx="40" cy="36" rx="17" ry="20" fill="#f5c9a8"/>
  <path d="M23 34c0-17 8-25 19-25 12 0 20 10 18 27-4-3-8-9-9-15-6 7-16 11-28 13Z" fill="#312e81"/>
  <circle cx="34" cy="37" r="1.5" fill="#312e81"/><circle cx="47" cy="37" r="1.5" fill="#312e81"/>
  <path d="M35 45c3 3 7 3 10 0" fill="none" stroke="#b4535a" stroke-width="2" stroke-linecap="round"/>
</svg>
