<svg xmlns="http://www.w3.org/2000/svg" viewBox="0 0 96 96">
  <defs><linearGradient id="m" x1=".15" y1=".1" x2=".85" y2=".9"><stop stop-color="#5eead4"/><stop offset="1" stop-color="#10b981"/></linearGradient></defs>
  <path d="M47 12c-8-8-18-8-23-3 0 8 5 15 13 18-13 3-22 14-22 29 0 20 14 32 33 32s33-12 33-32c0-15-9-26-22-29 8-3 13-10 13-18-5-5-15-5-23 3l-1 3-1-3Z" fill="url(#m)"/>
  <path d="M30 49c0-11 8-18 18-18s18 7 18 18v10c0 11-8 18-18 18s-18-7-18-18V49Z" fill="#ecfdf5"/>
  <circle cx="40" cy="52" r="3" fill="#0f766e"/><circle cx="56" cy="52" r="3" fill="#0f766e"/>
  <path d="M42 62c4 3 8 3 12 0" fill="none" stroke="#0f766e" stroke-width="3" stroke-linecap="round"/>
  <circle cx="28" cy="59" r="5" fill="#a7f3d0"/><circle cx="68" cy="59" r="5" fill="#a7f3d0"/>
  <path d="M48 27V14M48 19c-6 0-11-4-12-9 7-1 11 2 12 9Zm0 0c6 0 11-4 12-9-7-1-11 2-12 9Z" fill="#34d399" stroke="#059669" stroke-width="2" stroke-linejoin="round"/>
</svg>
